<?xml version="1.0" encoding="UTF-8" standalone="no"?><!DOCTYPE svg PUBLIC "-//W3C//DTD SVG 1.1//EN" "http://www.w3.org/Graphics/SVG/1.1/DTD/svg11.dtd"><svg width="100%" height="100%" viewBox="0 0 284 142" version="1.1" xmlns="http://www.w3.org/2000/svg" xmlns:xlink="http://www.w3.org/1999/xlink" xml:space="preserve" xmlns:serif="http://www.serif.com/" style="fill-rule:evenodd;clip-rule:evenodd;stroke-linejoin:round;stroke-miterlimit:2;"><g><path d="M28.371,103.095l0,1.806l-28.371,0l0,-1.806l2.344,0c2.734,0 4.72,-0.798 5.957,-2.393c0.782,-1.042 1.172,-3.548 1.172,-7.52l0,-42.776c0,-3.353 -0.211,-5.567 -0.635,-6.641c-0.325,-0.814 -0.992,-1.514 -2.002,-2.1c-1.432,-0.781 -2.93,-1.172 -4.492,-1.172l-2.344,0l0,-1.807l28.371,0l0,1.807l-2.393,0c-2.702,0 -4.671,0.798 -5.908,2.393c-0.814,1.042 -1.221,3.548 -1.221,7.52l0,42.776c0,3.353 0.211,5.567 0.635,6.641c0.325,0.814 1.009,1.514 2.051,2.1c1.399,0.781 2.881,1.172 4.443,1.172l2.393,0Z" style="fill:none;fill-rule:nonzero;stroke:#000;stroke-width:1px;"/><path d="M73.149,60.172l0,27.101c0,5.176 0.122,8.342 0.366,9.498c0.244,1.156 0.635,1.961 1.172,2.417c0.537,0.456 1.164,0.684 1.88,0.684c1.009,0 2.149,-0.277 3.418,-0.83l0.684,1.709l-13.38,5.518l-2.197,0l0,-9.474c-3.842,4.167 -6.771,6.788 -8.79,7.862c-2.018,1.075 -4.15,1.612 -6.397,1.612c-2.506,0 -4.679,-0.725 -6.519,-2.173c-1.839,-1.449 -3.117,-3.313 -3.833,-5.591c-0.716,-2.279 -1.074,-5.502 -1.074,-9.669l0,-19.972c0,-2.116 -0.228,-3.581 -0.684,-4.395c-0.455,-0.814 -1.131,-1.44 -2.026,-1.88c-0.895,-0.439 -2.515,-0.643 -4.859,-0.61l0,-1.807l15.675,0l0,29.934c0,4.167 0.724,6.901 2.173,8.203c1.449,1.302 3.198,1.953 5.249,1.953c1.4,0 2.987,-0.439 4.761,-1.318c1.774,-0.879 3.882,-2.555 6.324,-5.03l0,-25.343c0,-2.539 -0.464,-4.256 -1.392,-5.152c-0.928,-0.895 -2.856,-1.375 -5.786,-1.44l0,-1.807l15.235,0Z" style="fill:none;fill-rule:nonzero;stroke:#000;stroke-width:1px;"/><path d="M112.849,58.854l0,15.235l-1.612,0c-1.237,-4.785 -2.824,-8.041 -4.761,-9.766c-1.937,-1.726 -4.403,-2.588 -7.398,-2.588c-2.278,0 -4.118,0.602 -5.518,1.806c-1.399,1.205 -2.099,2.54 -2.099,4.005c0,1.823 0.521,3.385 1.562,4.687c1.009,1.335 3.06,2.751 6.153,4.249l7.129,3.467c6.609,3.223 9.913,7.471 9.913,12.745c0,4.069 -1.538,7.349 -4.615,9.839c-3.076,2.49 -6.518,3.736 -10.327,3.736c-2.735,0 -5.86,-0.489 -9.376,-1.465c-1.074,-0.326 -1.953,-0.489 -2.637,-0.489c-0.748,0 -1.334,0.424 -1.758,1.27l-1.611,0l0,-15.968l1.611,0c0.912,4.558 2.653,7.992 5.225,10.304c2.572,2.311 5.453,3.467 8.643,3.467c2.247,0 4.078,-0.66 5.494,-1.978c1.416,-1.318 2.124,-2.905 2.124,-4.761c0,-2.246 -0.789,-4.134 -2.368,-5.664c-1.579,-1.53 -4.729,-3.467 -9.449,-5.811c-4.72,-2.344 -7.813,-4.46 -9.278,-6.348c-1.465,-1.856 -2.197,-4.2 -2.197,-7.032c0,-3.679 1.261,-6.755 3.784,-9.229c2.523,-2.474 5.786,-3.711 9.791,-3.711c1.758,0 3.89,0.374 6.397,1.123c1.66,0.488 2.767,0.732 3.32,0.732c0.521,0 0.928,-0.114 1.221,-0.342c0.293,-0.227 0.635,-0.732 1.025,-1.513l1.612,0Z" style="fill:none;fill-rule:nonzero;stroke:#000;stroke-width:1px;"/><path d="M148.202,98.456c-4.59,3.548 -7.471,5.599 -8.643,6.152c-1.758,0.814 -3.629,1.221 -5.615,1.221c-3.093,0 -5.64,-1.058 -7.642,-3.174c-2.002,-2.116 -3.003,-4.899 -3.003,-8.35c0,-2.181 0.488,-4.069 1.464,-5.664c1.335,-2.214 3.655,-4.297 6.959,-6.251c3.304,-1.953 8.798,-4.329 16.48,-7.129l0,-1.758c0,-4.46 -0.708,-7.52 -2.124,-9.18c-1.416,-1.66 -3.475,-2.491 -6.177,-2.491c-2.051,0 -3.678,0.554 -4.883,1.661c-1.237,1.106 -1.856,2.376 -1.856,3.808l0.098,2.833c0,1.497 -0.382,2.653 -1.147,3.467c-0.765,0.814 -1.767,1.22 -3.004,1.22c-1.204,0 -2.189,-0.423 -2.954,-1.269c-0.765,-0.847 -1.147,-2.002 -1.147,-3.467c0,-2.8 1.432,-5.372 4.297,-7.715c2.865,-2.344 6.885,-3.516 12.061,-3.516c3.972,0 7.227,0.667 9.766,2.002c1.921,1.009 3.337,2.588 4.249,4.736c0.586,1.4 0.879,4.265 0.879,8.595l0,15.186c0,4.265 0.081,6.877 0.244,7.838c0.162,0.96 0.431,1.603 0.805,1.928c0.375,0.326 0.806,0.489 1.294,0.489c0.521,0 0.977,-0.114 1.368,-0.342c0.683,-0.423 2.002,-1.612 3.955,-3.565l0,2.735c-3.646,4.883 -7.129,7.324 -10.45,7.324c-1.595,0 -2.865,-0.553 -3.809,-1.66c-0.944,-1.107 -1.432,-2.995 -1.465,-5.664Zm0,-3.174l0,-17.042c-4.915,1.953 -8.089,3.336 -9.522,4.15c-2.571,1.433 -4.411,2.93 -5.518,4.493c-1.106,1.562 -1.66,3.271 -1.66,5.127c0,2.344 0.7,4.289 2.1,5.835c1.4,1.547 3.011,2.32 4.834,2.32c2.474,0 5.73,-1.628 9.766,-4.883Z" style="fill:none;fill-rule:nonzero;stroke:#000;stroke-width:1px;"/><path d="M179.503,67.887c4.33,-6.022 9.001,-9.033 14.015,-9.033c4.59,0 8.594,1.961 12.012,5.884c3.418,3.923 5.127,9.286 5.127,16.09c0,7.943 -2.636,14.34 -7.91,19.19c-4.525,4.167 -9.571,6.251 -15.138,6.251c-2.604,0 -5.249,-0.472 -7.935,-1.416c-2.686,-0.944 -5.428,-2.361 -8.228,-4.249l0,-46.34c0,-5.079 -0.122,-8.204 -0.366,-9.376c-0.244,-1.172 -0.627,-1.97 -1.148,-2.393c-0.521,-0.423 -1.172,-0.635 -1.953,-0.635c-0.912,0 -2.051,0.261 -3.418,0.782l-0.684,-1.709l13.429,-5.469l2.197,0l0,32.423Zm0,3.126l0,26.759c1.66,1.628 3.378,2.857 5.152,3.687c1.774,0.83 3.589,1.245 5.444,1.245c2.963,0 5.722,-1.628 8.277,-4.883c2.556,-3.255 3.834,-7.992 3.834,-14.21c0,-5.729 -1.278,-10.132 -3.834,-13.209c-2.555,-3.076 -5.461,-4.614 -8.716,-4.614c-1.725,0 -3.451,0.439 -5.176,1.318c-1.302,0.651 -2.963,1.953 -4.981,3.907Z" style="fill:none;fill-rule:nonzero;stroke:#000;stroke-width:1px;"/><path d="M232.631,35.464l0,59.329c0,2.8 0.204,4.656 0.611,5.567c0.407,0.912 1.033,1.603 1.88,2.075c0.846,0.472 2.425,0.709 4.736,0.709l0,1.757l-21.925,0l0,-1.757c2.051,0 3.451,-0.212 4.2,-0.635c0.748,-0.424 1.334,-1.123 1.758,-2.1c0.423,-0.977 0.634,-2.849 0.634,-5.616l0,-40.627c0,-5.046 -0.114,-8.147 -0.341,-9.302c-0.228,-1.156 -0.595,-1.946 -1.099,-2.369c-0.505,-0.423 -1.148,-0.635 -1.929,-0.635c-0.846,0 -1.921,0.261 -3.223,0.782l-0.83,-1.709l13.331,-5.469l2.197,0Z" style="fill:none;fill-rule:nonzero;stroke:#000;stroke-width:1px;"/><path d="M252.554,77.019c-0.032,6.641 1.579,11.85 4.835,15.626c3.255,3.776 7.08,5.664 11.475,5.664c2.93,0 5.477,-0.805 7.642,-2.417c2.165,-1.611 3.98,-4.37 5.445,-8.277l1.514,0.977c-0.684,4.46 -2.67,8.521 -5.958,12.183c-3.288,3.663 -7.406,5.494 -12.354,5.494c-5.372,0 -9.97,-2.092 -13.795,-6.275c-3.825,-4.183 -5.738,-9.807 -5.738,-16.871c0,-7.65 1.962,-13.616 5.885,-17.897c3.922,-4.281 8.846,-6.421 14.771,-6.421c5.013,0 9.131,1.652 12.354,4.956c3.223,3.304 4.835,7.724 4.835,13.258l-30.911,0Zm0,-2.832l20.705,0c-0.163,-2.865 -0.505,-4.883 -1.026,-6.055c-0.813,-1.823 -2.026,-3.256 -3.638,-4.298c-1.611,-1.041 -3.296,-1.562 -5.054,-1.562c-2.702,0 -5.119,1.05 -7.251,3.149c-2.132,2.1 -3.377,5.022 -3.736,8.766Z" style="fill:none;fill-rule:nonzero;stroke:#000;stroke-width:1px;"/></g></svg>