<svg clip-rule="evenodd" fill-rule="evenodd" stroke-linejoin="round" stroke-miterlimit="2" viewBox="0 0 284 142" xmlns="http://www.w3.org/2000/svg"><g fill="none" stroke="#000"><path d="m28.371 103.095v1.806h-28.371v-1.806h2.344c2.734 0 4.72-.798 5.957-2.393.782-1.042 1.172-3.548 1.172-7.52v-42.776c0-3.353-.211-5.567-.635-6.641-.325-.814-.992-1.514-2.002-2.1-1.432-.781-2.93-1.172-4.492-1.172h-2.344v-1.807h28.371v1.807h-2.393c-2.702 0-4.671.798-5.908 2.393-.814 1.042-1.221 3.548-1.221 7.52v42.776c0 3.353.211 5.567.635 6.641.325.814 1.009 1.514 2.051 2.1 1.399.781 2.881 1.172 4.443 1.172z"/><path d="m73.149 60.172v27.101c0 5.176.122 8.342.366 9.498s.635 1.961 1.172 2.417 1.164.684 1.88.684c1.009 0 2.149-.277 3.418-.83l.684 1.709-13.38 5.518h-2.197v-9.474c-3.842 4.167-6.771 6.788-8.79 7.862-2.018 1.075-4.15 1.612-6.397 1.612-2.506 0-4.679-.725-6.519-2.173-1.839-1.449-3.117-3.313-3.833-5.591-.716-2.279-1.074-5.502-1.074-9.669v-19.972c0-2.116-.228-3.581-.684-4.395-.455-.814-1.131-1.44-2.026-1.88-.895-.439-2.515-.643-4.859-.61v-1.807h15.675v29.934c0 4.167.724 6.901 2.173 8.203s3.198 1.953 5.249 1.953c1.4 0 2.987-.439 4.761-1.318s3.882-2.555 6.324-5.03v-25.343c0-2.539-.464-4.256-1.392-5.152-.928-.895-2.856-1.375-5.786-1.44v-1.807z"/><path d="m112.849 58.854v15.235h-1.612c-1.237-4.785-2.824-8.041-4.761-9.766-1.937-1.726-4.403-2.588-7.398-2.588-2.278 0-4.118.602-5.518 1.806-1.399 1.205-2.099 2.54-2.099 4.005 0 1.823.521 3.385 1.562 4.687 1.009 1.335 3.06 2.751 6.153 4.249l7.129 3.467c6.609 3.223 9.913 7.471 9.913 12.745 0 4.069-1.538 7.349-4.615 9.839-3.076 2.49-6.518 3.736-10.327 3.736-2.735 0-5.86-.489-9.376-1.465-1.074-.326-1.953-.489-2.637-.489-.748 0-1.334.424-1.758 1.27h-1.611v-15.968h1.611c.912 4.558 2.653 7.992 5.225 10.304 2.572 2.311 5.453 3.467 8.643 3.467 2.247 0 4.078-.66 5.494-1.978s2.124-2.905 2.124-4.761c0-2.246-.789-4.134-2.368-5.664s-4.729-3.467-9.449-5.811-7.813-4.46-9.278-6.348c-1.465-1.856-2.197-4.2-2.197-7.032 0-3.679 1.261-6.755 3.784-9.229s5.786-3.711 9.791-3.711c1.758 0 3.89.374 6.397 1.123 1.66.488 2.767.732 3.32.732.521 0 .928-.114 1.221-.342.293-.227.635-.732 1.025-1.513z"/><path d="m148.202 98.456c-4.59 3.548-7.471 5.599-8.643 6.152-1.758.814-3.629 1.221-5.615 1.221-3.093 0-5.64-1.058-7.642-3.174s-3.003-4.899-3.003-8.35c0-2.181.488-4.069 1.464-5.664 1.335-2.214 3.655-4.297 6.959-6.251 3.304-1.953 8.798-4.329 16.48-7.129v-1.758c0-4.46-.708-7.52-2.124-9.18s-3.475-2.491-6.177-2.491c-2.051 0-3.678.554-4.883 1.661-1.237 1.106-1.856 2.376-1.856 3.808l.098 2.833c0 1.497-.382 2.653-1.147 3.467s-1.767 1.22-3.004 1.22c-1.204 0-2.189-.423-2.954-1.269-.765-.847-1.147-2.002-1.147-3.467 0-2.8 1.432-5.372 4.297-7.715 2.865-2.344 6.885-3.516 12.061-3.516 3.972 0 7.227.667 9.766 2.002 1.921 1.009 3.337 2.588 4.249 4.736.586 1.4.879 4.265.879 8.595v15.186c0 4.265.081 6.877.244 7.838.162.96.431 1.603.805 1.928.375.326.806.489 1.294.489.521 0 .977-.114 1.368-.342.683-.423 2.002-1.612 3.955-3.565v2.735c-3.646 4.883-7.129 7.324-10.45 7.324-1.595 0-2.865-.553-3.809-1.66s-1.432-2.995-1.465-5.664zm0-3.174v-17.042c-4.915 1.953-8.089 3.336-9.522 4.15-2.571 1.433-4.411 2.93-5.518 4.493-1.106 1.562-1.66 3.271-1.66 5.127 0 2.344.7 4.289 2.1 5.835 1.4 1.547 3.011 2.32 4.834 2.32 2.474 0 5.73-1.628 9.766-4.883z"/><path d="m179.503 67.887c4.33-6.022 9.001-9.033 14.015-9.033 4.59 0 8.594 1.961 12.012 5.884s5.127 9.286 5.127 16.09c0 7.943-2.636 14.34-7.91 19.19-4.525 4.167-9.571 6.251-15.138 6.251-2.604 0-5.249-.472-7.935-1.416s-5.428-2.361-8.228-4.249v-46.34c0-5.079-.122-8.204-.366-9.376s-.627-1.97-1.148-2.393-1.172-.635-1.953-.635c-.912 0-2.051.261-3.418.782l-.684-1.709 13.429-5.469h2.197zm0 3.126v26.759c1.66 1.628 3.378 2.857 5.152 3.687s3.589 1.245 5.444 1.245c2.963 0 5.722-1.628 8.277-4.883 2.556-3.255 3.834-7.992 3.834-14.21 0-5.729-1.278-10.132-3.834-13.209-2.555-3.076-5.461-4.614-8.716-4.614-1.725 0-3.451.439-5.176 1.318-1.302.651-2.963 1.953-4.981 3.907z"/><path d="m232.631 35.464v59.329c0 2.8.204 4.656.611 5.567.407.912 1.033 1.603 1.88 2.075.846.472 2.425.709 4.736.709v1.757h-21.925v-1.757c2.051 0 3.451-.212 4.2-.635.748-.424 1.334-1.123 1.758-2.1.423-.977.634-2.849.634-5.616v-40.627c0-5.046-.114-8.147-.341-9.302-.228-1.156-.595-1.946-1.099-2.369-.505-.423-1.148-.635-1.929-.635-.846 0-1.921.261-3.223.782l-.83-1.709 13.331-5.469z"/><path d="m252.554 77.019c-.032 6.641 1.579 11.85 4.835 15.626 3.255 3.776 7.08 5.664 11.475 5.664 2.93 0 5.477-.805 7.642-2.417 2.165-1.611 3.98-4.37 5.445-8.277l1.514.977c-.684 4.46-2.67 8.521-5.958 12.183-3.288 3.663-7.406 5.494-12.354 5.494-5.372 0-9.97-2.092-13.795-6.275s-5.738-9.807-5.738-16.871c0-7.65 1.962-13.616 5.885-17.897 3.922-4.281 8.846-6.421 14.771-6.421 5.013 0 9.131 1.652 12.354 4.956s4.835 7.724 4.835 13.258zm0-2.832h20.705c-.163-2.865-.505-4.883-1.026-6.055-.813-1.823-2.026-3.256-3.638-4.298-1.611-1.041-3.296-1.562-5.054-1.562-2.702 0-5.119 1.05-7.251 3.149-2.132 2.1-3.377 5.022-3.736 8.766z"/></g></svg>